<svg xmlns="http://www.w3.org/2000/svg" viewBox="0 0 940 754" aria-hidden="true"><g fill="#9b8f80" font-family="Courier New, monospace" font-size="12"><text x="230" y="26">+</text><text x="630" y="26">.</text><text x="230" y="39">=</text><text x="560" y="39">+</text><text x="580" y="39">0</text><text x="590" y="39">/</text><text x="600" y="39">*</text><text x="610" y="39">~</text><text x="210" y="52">=</text><text x="230" y="52">_</text><text x="240" y="52">.</text><text x="570" y="52">+</text><text x="580" y="52">*</text><text x="230" y="65">:</text><text x="240" y="65">_</text><text x="540" y="65">-</text><text x="740" y="65">%</text><text x="770" y="65">\</text><text x="240" y="78">~</text><text x="250" y="78">*</text><text x="270" y="78">~</text><text x="490" y="78">.</text><text x="500" y="78">\</text><text x="510" y="78">+</text><text x="740" y="78">-</text><text x="750" y="78">-</text><text x="760" y="78">#</text><text x="250" y="91">+</text><text x="470" y="91">1</text><text x="480" y="91">1</text><text x="720" y="91">#</text><text x="740" y="91">:</text><text x="780" y="91">_</text><text x="110" y="104">\</text><text x="140" y="104">%</text><text x="250" y="104">*</text><text x="450" y="104">%</text><text x="460" y="104">:</text><text x="670" y="104">\</text><text x="680" y="104">-</text><text x="690" y="104">~</text><text x="700" y="104">-</text><text x="740" y="104">+</text><text x="110" y="117">\</text><text x="120" y="117">\</text><text x="130" y="117">/</text><text x="450" y="117">:</text><text x="470" y="117">~</text><text x="640" y="117">1</text><text x="650" y="117">\</text><text x="660" y="117">\</text><text x="670" y="117">_</text><text x="680" y="117">.</text><text x="690" y="117">.</text><text x="700" y="117">.</text><text x="130" y="130">0</text><text x="140" y="130">1</text><text x="270" y="130">1</text><text x="420" y="130">.</text><text x="430" y="130">.</text><text x="580" y="130">0</text><text x="630" y="130">~</text><text x="640" y="130">%</text><text x="650" y="130">\</text><text x="140" y="143">+</text><text x="150" y="143">_</text><text x="160" y="143">-</text><text x="190" y="143">.</text><text x="240" y="143">.</text><text x="270" y="143">=</text><text x="280" y="143">=</text><text x="420" y="143">0</text><text x="430" y="143">~</text><text x="520" y="143">.</text><text x="590" y="143">1</text><text x="600" y="143">.</text><text x="610" y="143">1</text><text x="130" y="156">\</text><text x="160" y="156">:</text><text x="200" y="156">*</text><text x="210" y="156">-</text><text x="270" y="156">#</text><text x="280" y="156">0</text><text x="400" y="156">:</text><text x="410" y="156">*</text><text x="540" y="156">*</text><text x="560" y="156">\</text><text x="580" y="156">%</text><text x="600" y="156">/</text><text x="10" y="169">=</text><text x="20" y="169">0</text><text x="30" y="169">/</text><text x="40" y="169">1</text><text x="180" y="169">/</text><text x="190" y="169">1</text><text x="270" y="169">\</text><text x="280" y="169">0</text><text x="290" y="169">=</text><text x="310" y="169">1</text><text x="390" y="169">\</text><text x="400" y="169">#</text><text x="540" y="169">~</text><text x="550" y="169">~</text><text x="600" y="169">%</text><text x="0" y="182">*</text><text x="70" y="182">_</text><text x="90" y="182">#</text><text x="100" y="182">\</text><text x="190" y="182">*</text><text x="200" y="182">#</text><text x="210" y="182">:</text><text x="280" y="182">~</text><text x="290" y="182">_</text><text x="300" y="182">:</text><text x="380" y="182">0</text><text x="390" y="182">_</text><text x="510" y="182">0</text><text x="520" y="182">-</text><text x="860" y="182">%</text><text x="870" y="182">*</text><text x="880" y="182">*</text><text x="110" y="195">#</text><text x="120" y="195">#</text><text x="130" y="195">%</text><text x="150" y="195">*</text><text x="160" y="195">+</text><text x="210" y="195">-</text><text x="220" y="195">/</text><text x="250" y="195">.</text><text x="280" y="195">/</text><text x="300" y="195">_</text><text x="370" y="195">\</text><text x="380" y="195">:</text><text x="480" y="195">0</text><text x="500" y="195">:</text><text x="510" y="195">_</text><text x="520" y="195">*</text><text x="810" y="195">~</text><text x="820" y="195">/</text><text x="840" y="195">0</text><text x="850" y="195">1</text><text x="860" y="195">0</text><text x="20" y="208">~</text><text x="150" y="208">-</text><text x="160" y="208">+</text><text x="180" y="208">=</text><text x="190" y="208">=</text><text x="220" y="208">1</text><text x="230" y="208">=</text><text x="240" y="208">-</text><text x="290" y="208">:</text><text x="300" y="208">=</text><text x="310" y="208">0</text><text x="330" y="208">/</text><text x="360" y="208">*</text><text x="390" y="208">-</text><text x="480" y="208">/</text><text x="490" y="208">1</text><text x="510" y="208">0</text><text x="740" y="208">#</text><text x="780" y="208">=</text><text x="790" y="208">/</text><text x="810" y="208">_</text><text x="820" y="208">.</text><text x="830" y="208">%</text><text x="840" y="208">=</text><text x="20" y="221">=</text><text x="90" y="221">:</text><text x="180" y="221">.</text><text x="190" y="221">#</text><text x="200" y="221">0</text><text x="240" y="221">1</text><text x="250" y="221">*</text><text x="300" y="221">\</text><text x="310" y="221">#</text><text x="340" y="221">*</text><text x="380" y="221">#</text><text x="480" y="221">:</text><text x="490" y="221">*</text><text x="500" y="221">*</text><text x="740" y="221">_</text><text x="750" y="221">-</text><text x="760" y="221">-</text><text x="770" y="221">1</text><text x="780" y="221">+</text><text x="20" y="234">-</text><text x="30" y="234">*</text><text x="40" y="234">.</text><text x="60" y="234">+</text><text x="90" y="234">1</text><text x="100" y="234">=</text><text x="110" y="234">_</text><text x="160" y="234">+</text><text x="200" y="234">=</text><text x="210" y="234">0</text><text x="220" y="234">\</text><text x="250" y="234">:</text><text x="270" y="234">-</text><text x="300" y="234">#</text><text x="310" y="234">0</text><text x="320" y="234">+</text><text x="330" y="234">/</text><text x="340" y="234">:</text><text x="450" y="234">\</text><text x="460" y="234">~</text><text x="470" y="234">=</text><text x="480" y="234">_</text><text x="500" y="234">\</text><text x="640" y="234">:</text><text x="720" y="234">.</text><text x="730" y="234">_</text><text x="40" y="247">:</text><text x="50" y="247">+</text><text x="60" y="247">1</text><text x="70" y="247">%</text><text x="120" y="247">+</text><text x="190" y="247">1</text><text x="220" y="247">0</text><text x="230" y="247">*</text><text x="240" y="247">#</text><text x="250" y="247">\</text><text x="270" y="247">%</text><text x="310" y="247">=</text><text x="320" y="247">.</text><text x="330" y="247">~</text><text x="420" y="247">%</text><text x="450" y="247">.</text><text x="460" y="247">0</text><text x="500" y="247">~</text><text x="580" y="247">:</text><text x="590" y="247">\</text><text x="610" y="247">1</text><text x="650" y="247">%</text><text x="660" y="247">#</text><text x="670" y="247">~</text><text x="680" y="247">\</text><text x="690" y="247">0</text><text x="700" y="247">-</text><text x="70" y="260">:</text><text x="90" y="260">#</text><text x="100" y="260">1</text><text x="110" y="260">.</text><text x="140" y="260">_</text><text x="240" y="260">-</text><text x="250" y="260">*</text><text x="270" y="260">0</text><text x="320" y="260">.</text><text x="330" y="260">#</text><text x="430" y="260">=</text><text x="450" y="260">-</text><text x="460" y="260">%</text><text x="630" y="260">+</text><text x="650" y="260">_</text><text x="660" y="260">~</text><text x="60" y="273">=</text><text x="100" y="273">_</text><text x="110" y="273">_</text><text x="120" y="273">%</text><text x="130" y="273">*</text><text x="140" y="273">+</text><text x="150" y="273">-</text><text x="160" y="273">_</text><text x="270" y="273">0</text><text x="280" y="273">~</text><text x="320" y="273">0</text><text x="330" y="273">~</text><text x="340" y="273">*</text><text x="390" y="273">_</text><text x="400" y="273">:</text><text x="410" y="273">#</text><text x="420" y="273">#</text><text x="430" y="273">%</text><text x="470" y="273">_</text><text x="520" y="273">+</text><text x="570" y="273">_</text><text x="580" y="273">:</text><text x="590" y="273">.</text><text x="600" y="273">%</text><text x="610" y="273">_</text><text x="640" y="273">:</text><text x="140" y="286">-</text><text x="150" y="286">0</text><text x="160" y="286">=</text><text x="230" y="286">#</text><text x="280" y="286">+</text><text x="290" y="286">0</text><text x="300" y="286">:</text><text x="310" y="286">*</text><text x="330" y="286">0</text><text x="390" y="286">*</text><text x="400" y="286">+</text><text x="410" y="286">:</text><text x="460" y="286">+</text><text x="510" y="286">=</text><text x="540" y="286">-</text><text x="550" y="286">-</text><text x="560" y="286">:</text><text x="570" y="286">#</text><text x="580" y="286">=</text><text x="610" y="286">1</text><text x="180" y="299">~</text><text x="200" y="299">#</text><text x="300" y="299">.</text><text x="310" y="299">+</text><text x="320" y="299">-</text><text x="330" y="299">/</text><text x="360" y="299">:</text><text x="390" y="299">*</text><text x="400" y="299">\</text><text x="520" y="299">_</text><text x="540" y="299">+</text><text x="550" y="299">\</text><text x="560" y="299">/</text><text x="630" y="299">=</text><text x="640" y="299">/</text><text x="200" y="312">~</text><text x="210" y="312">0</text><text x="220" y="312">%</text><text x="230" y="312">*</text><text x="250" y="312">1</text><text x="290" y="312">0</text><text x="330" y="312">%</text><text x="340" y="312">*</text><text x="360" y="312">#</text><text x="370" y="312">/</text><text x="380" y="312">\</text><text x="390" y="312">%</text><text x="430" y="312">*</text><text x="490" y="312">*</text><text x="510" y="312">#</text><text x="520" y="312">\</text><text x="610" y="312">:</text><text x="640" y="312">_</text><text x="650" y="312">*</text><text x="660" y="312">+</text><text x="90" y="325">%</text><text x="100" y="325">_</text><text x="110" y="325">*</text><text x="120" y="325">~</text><text x="130" y="325">-</text><text x="140" y="325">/</text><text x="160" y="325">.</text><text x="180" y="325">0</text><text x="190" y="325">/</text><text x="220" y="325">=</text><text x="230" y="325">0</text><text x="240" y="325">0</text><text x="250" y="325">/</text><text x="360" y="325">#</text><text x="370" y="325">0</text><text x="390" y="325">=</text><text x="470" y="325">_</text><text x="480" y="325">.</text><text x="500" y="325">+</text><text x="510" y="325">%</text><text x="520" y="325">=</text><text x="680" y="325">=</text><text x="690" y="325">-</text><text x="100" y="338">1</text><text x="200" y="338">~</text><text x="230" y="338">=</text><text x="240" y="338">1</text><text x="250" y="338">-</text><text x="270" y="338">.</text><text x="340" y="338">%</text><text x="360" y="338">\</text><text x="370" y="338">#</text><text x="390" y="338">*</text><text x="400" y="338">0</text><text x="430" y="338">_</text><text x="450" y="338">0</text><text x="460" y="338">:</text><text x="480" y="338">1</text><text x="520" y="338">~</text><text x="690" y="338">=</text><text x="220" y="351">~</text><text x="250" y="351">/</text><text x="270" y="351">%</text><text x="280" y="351">#</text><text x="330" y="351">~</text><text x="360" y="351">-</text><text x="370" y="351">+</text><text x="390" y="351">:</text><text x="400" y="351">*</text><text x="410" y="351">~</text><text x="430" y="351">#</text><text x="450" y="351">#</text><text x="230" y="364">1</text><text x="240" y="364">+</text><text x="270" y="364">:</text><text x="280" y="364">-</text><text x="300" y="364">_</text><text x="320" y="364">:</text><text x="370" y="364">~</text><text x="390" y="364">+</text><text x="400" y="364">=</text><text x="410" y="364">=</text><text x="420" y="364">_</text><text x="430" y="364">#</text><text x="470" y="364">_</text><text x="230" y="377">_</text><text x="280" y="377">-</text><text x="290" y="377">#</text><text x="300" y="377">\</text><text x="310" y="377">%</text><text x="320" y="377">\</text><text x="360" y="377">0</text><text x="370" y="377">-</text><text x="380" y="377">:</text><text x="390" y="377">-</text><text x="410" y="377">*</text><text x="300" y="390">.</text><text x="310" y="390">:</text><text x="320" y="390">~</text><text x="330" y="390">_</text><text x="370" y="390">~</text><text x="380" y="390">1</text><text x="390" y="390">=</text><text x="400" y="390">~</text><text x="280" y="403">*</text><text x="310" y="403">.</text><text x="320" y="403">+</text><text x="330" y="403">.</text><text x="340" y="403">*</text><text x="360" y="403">~</text><text x="370" y="403">0</text><text x="380" y="403">1</text><text x="390" y="403">\</text><text x="410" y="403">\</text><text x="290" y="416">#</text><text x="300" y="416">*</text><text x="310" y="416">/</text><text x="330" y="416">\</text><text x="340" y="416">~</text><text x="380" y="416">_</text><text x="390" y="416">-</text><text x="400" y="416">.</text><text x="410" y="416">+</text><text x="320" y="429">%</text><text x="330" y="429">.</text><text x="340" y="429">/</text><text x="370" y="429">\</text><text x="380" y="429">#</text><text x="390" y="429">#</text><text x="400" y="429">.</text><text x="360" y="442">%</text><text x="370" y="442">+</text><text x="380" y="442">#</text><text x="390" y="442">0</text><text x="400" y="442">0</text><text x="370" y="455">=</text><text x="380" y="455">+</text><text x="390" y="455">:</text><text x="400" y="455">#</text><text x="410" y="455">=</text><text x="430" y="455">:</text><text x="320" y="468">#</text><text x="330" y="468">\</text><text x="390" y="468">_</text><text x="400" y="468">1</text><text x="410" y="468">=</text><text x="430" y="468">0</text><text x="320" y="481">*</text><text x="330" y="481">:</text><text x="340" y="481">_</text><text x="380" y="481">:</text><text x="390" y="481">/</text><text x="400" y="481">_</text><text x="410" y="481">-</text><text x="390" y="494">.</text><text x="400" y="494">%</text><text x="420" y="494">/</text><text x="450" y="494">~</text><text x="460" y="494">_</text><text x="330" y="507">-</text><text x="390" y="507">_</text><text x="400" y="507">-</text><text x="410" y="507">:</text><text x="420" y="507">+</text><text x="450" y="507">*</text><text x="480" y="507">1</text><text x="390" y="520">-</text><text x="400" y="520">#</text><text x="410" y="520">#</text><text x="460" y="520">+</text><text x="390" y="533">/</text><text x="400" y="533">1</text><text x="410" y="533">+</text><text x="420" y="533">/</text><text x="430" y="533">:</text><text x="360" y="546">\</text><text x="400" y="546">=</text><text x="410" y="546">_</text><text x="420" y="546">=</text><text x="430" y="546">+</text><text x="480" y="546">1</text><text x="400" y="559">1</text><text x="410" y="559">\</text><text x="420" y="559">/</text><text x="430" y="559">=</text><text x="490" y="559">-</text><text x="400" y="572">.</text><text x="410" y="572">1</text><text x="420" y="572">+</text><text x="430" y="572">%</text><text x="480" y="572">-</text><text x="410" y="585">0</text><text x="420" y="585">0</text><text x="430" y="585">#</text><text x="470" y="585">=</text><text x="410" y="598">*</text><text x="420" y="598">-</text><text x="430" y="598">:</text><text x="450" y="598">=</text><text x="420" y="611">/</text><text x="430" y="611">/</text><text x="450" y="611">#</text><text x="370" y="624">\</text><text x="420" y="624">+</text><text x="430" y="624">_</text><text x="450" y="624">-</text><text x="460" y="624">-</text><text x="390" y="637">0</text><text x="450" y="637">#</text><text x="460" y="637">/</text><text x="470" y="637">%</text><text x="420" y="650">-</text><text x="430" y="650">/</text><text x="450" y="650">\</text><text x="460" y="650">=</text><text x="390" y="663">:</text><text x="430" y="663">=</text><text x="450" y="663">#</text><text x="460" y="663">_</text><text x="430" y="676">-</text><text x="450" y="676">_</text><text x="460" y="676">_</text><text x="470" y="676">0</text><text x="430" y="689">.</text><text x="450" y="689">%</text><text x="490" y="689">/</text><text x="510" y="689">\</text><text x="450" y="702">-</text><text x="460" y="702">0</text><text x="470" y="702">\</text><text x="510" y="702">-</text><text x="450" y="715">\</text><text x="460" y="715">~</text><text x="470" y="715">-</text><text x="450" y="728">.</text><text x="460" y="728">_</text><text x="470" y="728">%</text><text x="480" y="728">*</text><text x="450" y="741">#</text><text x="460" y="741">/</text><text x="470" y="741">*</text><text x="480" y="741">:</text><text x="400" y="754">:</text><text x="450" y="754">*</text><text x="460" y="754">/</text><text x="470" y="754">+</text></g></svg>
